<svg width="70" height="70" viewBox="0 0 70 70" fill="none" xmlns="http://www.w3.org/2000/svg">
<path d="M28.6275 35C28.6275 31.4815 31.4806 28.6285 35.0012 28.6285C38.5217 28.6285 41.3764 31.4815 41.3764 35C41.3764 38.5184 38.5217 41.3714 35.0012 41.3714C31.4806 41.3714 28.6275 38.5184 28.6275 35ZM25.1811 35C25.1811 40.4204 29.5776 44.8142 35.0012 44.8142C40.4248 44.8142 44.8213 40.4204 44.8213 35C44.8213 29.5796 40.4248 25.1858 35.0012 25.1858C29.5776 25.1858 25.1811 29.5796 25.1811 35ZM42.9151 24.7967C42.9149 25.2503 43.0493 25.6938 43.3014 26.071C43.5534 26.4483 43.9117 26.7424 44.3309 26.9162C44.7502 27.0899 45.2116 27.1355 45.6568 27.0472C46.102 26.9589 46.511 26.7406 46.8321 26.42C47.1532 26.0994 47.3719 25.6908 47.4606 25.2459C47.5494 24.8011 47.5041 24.3399 47.3306 23.9207C47.1571 23.5016 46.8631 23.1433 46.4858 22.8911C46.1085 22.6389 45.6648 22.5042 45.2109 22.504H45.21C44.6016 22.5043 44.0182 22.7459 43.5879 23.1758C43.1576 23.6057 42.9156 24.1886 42.9151 24.7967ZM27.275 50.5573C25.4105 50.4725 24.397 50.1621 23.7236 49.8998C22.8307 49.5524 22.1936 49.1387 21.5238 48.4702C20.854 47.8017 20.4394 47.1656 20.0933 46.2733C19.8308 45.6005 19.5202 44.5874 19.4354 42.724C19.3427 40.7094 19.3242 40.1042 19.3242 35.0001C19.3242 29.8961 19.3443 29.2926 19.4354 27.2763C19.5204 25.4129 19.8332 24.4017 20.0933 23.727C20.4409 22.8346 20.8549 22.1979 21.5238 21.5285C22.1927 20.8591 22.8291 20.4448 23.7236 20.0989C24.3967 19.8365 25.4105 19.5261 27.275 19.4414C29.2908 19.3488 29.8964 19.3303 35.0012 19.3303C40.106 19.3303 40.7122 19.3503 42.7297 19.4414C44.5942 19.5263 45.606 19.839 46.2811 20.0989C47.174 20.4448 47.8111 20.86 48.4809 21.5285C49.1507 22.197 49.5638 22.8346 49.9114 23.727C50.1739 24.3997 50.4845 25.4129 50.5692 27.2763C50.662 29.2926 50.6805 29.8961 50.6805 35.0001C50.6805 40.1042 50.662 40.7077 50.5692 42.724C50.4843 44.5874 50.1722 45.6002 49.9114 46.2733C49.5638 47.1656 49.1498 47.8023 48.4809 48.4702C47.812 49.1381 47.174 49.5524 46.2811 49.8998C45.608 50.1622 44.5942 50.4726 42.7297 50.5573C40.7138 50.65 40.1083 50.6685 35.0012 50.6685C29.8941 50.6685 29.2902 50.65 27.275 50.5573ZM27.1167 16.003C25.0808 16.0956 23.6896 16.4182 22.4747 16.8907C21.2164 17.3786 20.1513 18.0332 19.0869 19.0952C18.0225 20.1573 17.3693 21.2235 16.8811 22.481C16.4083 23.6959 16.0855 25.0855 15.9928 27.1202C15.8985 29.158 15.877 29.8096 15.877 35C15.877 40.1904 15.8985 40.8419 15.9928 42.8798C16.0855 44.9146 16.4083 46.304 16.8811 47.519C17.3693 48.7757 18.0227 49.8431 19.0869 50.9047C20.1511 51.9663 21.2164 52.62 22.4747 53.1093C23.6919 53.5817 25.0808 53.9044 27.1167 53.997C29.1568 54.0897 29.8077 54.1128 35.0012 54.1128C40.1947 54.1128 40.8466 54.0912 42.8857 53.997C44.9218 53.9044 46.312 53.5817 47.5277 53.1093C48.7852 52.62 49.8511 51.9668 50.9155 50.9047C51.9798 49.8427 52.6318 48.7757 53.1213 47.519C53.5941 46.304 53.9184 44.9145 54.0096 42.8798C54.1023 40.8404 54.1239 40.1904 54.1239 35C54.1239 29.8096 54.1023 29.158 54.0096 27.1202C53.9169 25.0853 53.5941 23.6952 53.1213 22.481C52.6318 21.2243 51.9782 20.159 50.9155 19.0952C49.8528 18.0315 48.7852 17.3786 47.5293 16.8907C46.312 16.4182 44.9216 16.0941 42.8873 16.003C40.8482 15.9103 40.1963 15.8872 35.0027 15.8872C29.8092 15.8872 29.1568 15.9088 27.1167 16.003Z" fill="url(#paint0_radial_319_432)"/>
<path d="M28.6275 35C28.6275 31.4815 31.4806 28.6285 35.0012 28.6285C38.5217 28.6285 41.3764 31.4815 41.3764 35C41.3764 38.5184 38.5217 41.3714 35.0012 41.3714C31.4806 41.3714 28.6275 38.5184 28.6275 35ZM25.1811 35C25.1811 40.4204 29.5776 44.8142 35.0012 44.8142C40.4248 44.8142 44.8213 40.4204 44.8213 35C44.8213 29.5796 40.4248 25.1858 35.0012 25.1858C29.5776 25.1858 25.1811 29.5796 25.1811 35ZM42.9151 24.7967C42.9149 25.2503 43.0493 25.6938 43.3014 26.071C43.5534 26.4483 43.9117 26.7424 44.3309 26.9162C44.7502 27.0899 45.2116 27.1355 45.6568 27.0472C46.102 26.9589 46.511 26.7406 46.8321 26.42C47.1532 26.0994 47.3719 25.6908 47.4606 25.2459C47.5494 24.8011 47.5041 24.3399 47.3306 23.9207C47.1571 23.5016 46.8631 23.1433 46.4858 22.8911C46.1085 22.6389 45.6648 22.5042 45.2109 22.504H45.21C44.6016 22.5043 44.0182 22.7459 43.5879 23.1758C43.1576 23.6057 42.9156 24.1886 42.9151 24.7967ZM27.275 50.5573C25.4105 50.4725 24.397 50.1621 23.7236 49.8998C22.8307 49.5524 22.1936 49.1387 21.5238 48.4702C20.854 47.8017 20.4394 47.1656 20.0933 46.2733C19.8308 45.6005 19.5202 44.5874 19.4354 42.724C19.3427 40.7094 19.3242 40.1042 19.3242 35.0001C19.3242 29.8961 19.3443 29.2926 19.4354 27.2763C19.5204 25.4129 19.8332 24.4017 20.0933 23.727C20.4409 22.8346 20.8549 22.1979 21.5238 21.5285C22.1927 20.8591 22.8291 20.4448 23.7236 20.0989C24.3967 19.8365 25.4105 19.5261 27.275 19.4414C29.2908 19.3488 29.8964 19.3303 35.0012 19.3303C40.106 19.3303 40.7122 19.3503 42.7297 19.4414C44.5942 19.5263 45.606 19.839 46.2811 20.0989C47.174 20.4448 47.8111 20.86 48.4809 21.5285C49.1507 22.197 49.5638 22.8346 49.9114 23.727C50.1739 24.3997 50.4845 25.4129 50.5692 27.2763C50.662 29.2926 50.6805 29.8961 50.6805 35.0001C50.6805 40.1042 50.662 40.7077 50.5692 42.724C50.4843 44.5874 50.1722 45.6002 49.9114 46.2733C49.5638 47.1656 49.1498 47.8023 48.4809 48.4702C47.812 49.1381 47.174 49.5524 46.2811 49.8998C45.608 50.1622 44.5942 50.4726 42.7297 50.5573C40.7138 50.65 40.1083 50.6685 35.0012 50.6685C29.8941 50.6685 29.2902 50.65 27.275 50.5573ZM27.1167 16.003C25.0808 16.0956 23.6896 16.4182 22.4747 16.8907C21.2164 17.3786 20.1513 18.0332 19.0869 19.0952C18.0225 20.1573 17.3693 21.2235 16.8811 22.481C16.4083 23.6959 16.0855 25.0855 15.9928 27.1202C15.8985 29.158 15.877 29.8096 15.877 35C15.877 40.1904 15.8985 40.8419 15.9928 42.8798C16.0855 44.9146 16.4083 46.304 16.8811 47.519C17.3693 48.7757 18.0227 49.8431 19.0869 50.9047C20.1511 51.9663 21.2164 52.62 22.4747 53.1093C23.6919 53.5817 25.0808 53.9044 27.1167 53.997C29.1568 54.0897 29.8077 54.1128 35.0012 54.1128C40.1947 54.1128 40.8466 54.0912 42.8857 53.997C44.9218 53.9044 46.312 53.5817 47.5277 53.1093C48.7852 52.62 49.8511 51.9668 50.9155 50.9047C51.9798 49.8427 52.6318 48.7757 53.1213 47.519C53.5941 46.304 53.9184 44.9145 54.0096 42.8798C54.1023 40.8404 54.1239 40.1904 54.1239 35C54.1239 29.8096 54.1023 29.158 54.0096 27.1202C53.9169 25.0853 53.5941 23.6952 53.1213 22.481C52.6318 21.2243 51.9782 20.159 50.9155 19.0952C49.8528 18.0315 48.7852 17.3786 47.5293 16.8907C46.312 16.4182 44.9216 16.0941 42.8873 16.003C40.8482 15.9103 40.1963 15.8872 35.0027 15.8872C29.8092 15.8872 29.1568 15.9088 27.1167 16.003Z" fill="url(#paint1_radial_319_432)"/>
<defs>
<radialGradient id="paint0_radial_319_432" cx="0" cy="0" r="1" gradientUnits="userSpaceOnUse" gradientTransform="translate(20.9585 54.2933) scale(49.9302 49.9002)">
<stop offset="0.09" stop-color="#FA8F21"/>
<stop offset="0.78" stop-color="#D82D7E"/>
</radialGradient>
<radialGradient id="paint1_radial_319_432" cx="0" cy="0" r="1" gradientUnits="userSpaceOnUse" gradientTransform="translate(39.073 56.0058) scale(39.3519 39.3283)">
<stop offset="0.64" stop-color="#8C3AAA" stop-opacity="0"/>
<stop offset="1" stop-color="#8C3AAA"/>
</radialGradient>
</defs>
</svg>
