<svg width="71" height="70" viewBox="0 0 71 70" fill="none" xmlns="http://www.w3.org/2000/svg">
<path d="M26.5653 23.3333C26.6653 24.8167 26.9153 26.2667 27.3153 27.65L25.3153 29.65C24.6319 27.65 24.1986 25.5333 24.0486 23.3333H26.5653ZM42.9986 43.3667C44.4153 43.7667 45.8653 44.0167 47.3319 44.1167V46.6C45.1319 46.45 43.0153 46.0167 40.9986 45.35L42.9986 43.3667ZM28.1653 20H22.3319C21.4153 20 20.6653 20.75 20.6653 21.6667C20.6653 37.3167 33.3486 50 48.9986 50C49.9153 50 50.6653 49.25 50.6653 48.3333V42.5167C50.6653 41.6 49.9153 40.85 48.9986 40.85C46.9319 40.85 44.9153 40.5167 43.0486 39.9C42.882 39.8333 42.6986 39.8167 42.5319 39.8167C42.0986 39.8167 41.6819 39.9833 41.3486 40.3L37.6819 43.9667C32.9653 41.55 29.0986 37.7 26.6986 32.9833L30.3653 29.3167C30.8319 28.85 30.9653 28.2 30.7819 27.6167C30.1653 25.75 29.8319 23.75 29.8319 21.6667C29.8319 20.75 29.0819 20 28.1653 20Z" fill="#5C6C72"/>
</svg>
