<svg width="71" height="70" viewBox="0 0 71 70" fill="none" xmlns="http://www.w3.org/2000/svg">
<path d="M35.8442 53.8276C46.4062 53.8276 54.9685 45.2654 54.9685 34.7033C54.9685 24.1413 46.4062 15.5791 35.8442 15.5791C25.2822 15.5791 16.72 24.1413 16.72 34.7033C16.72 45.2654 25.2822 53.8276 35.8442 53.8276Z" fill="#34AADF"/>
<path d="M24.9182 34.2846C24.9182 34.2846 34.3913 30.2544 37.6768 28.8352C38.9363 28.2676 43.2074 26.4511 43.2074 26.4511C43.2074 26.4511 45.1787 25.6565 45.0144 27.5864C44.9596 28.3811 44.5216 31.1625 44.0835 34.171C43.4264 38.4284 42.7145 43.083 42.7145 43.083C42.7145 43.083 42.605 44.3886 41.6742 44.6156C40.7433 44.8427 39.21 43.821 38.9363 43.5939C38.7172 43.4236 34.8294 40.8692 33.4057 39.6204C33.0223 39.2798 32.5843 38.5987 33.4604 37.804C35.4317 35.9307 37.7863 33.6034 39.21 32.1276C39.8671 31.4464 40.5242 29.857 37.7863 31.7869C33.8985 34.5684 30.0654 37.1796 30.0654 37.1796C30.0654 37.1796 29.1893 37.7472 27.5465 37.2363C25.9037 36.7255 23.9872 36.0443 23.9872 36.0443C23.9872 36.0443 22.6731 35.1928 24.9182 34.2846Z" fill="white"/>
</svg>
