<svg width="70" height="70" viewBox="0 0 70 70" fill="none" xmlns="http://www.w3.org/2000/svg">
<path fill-rule="evenodd" clip-rule="evenodd" d="M55.1598 24.4301C55.4542 23.5055 55.1598 22.8262 53.7586 22.8262H49.1253C47.9473 22.8262 47.4041 23.413 47.1096 24.0602C47.1096 24.0602 44.7534 29.4687 41.4156 32.9819C40.3357 33.9988 39.8448 34.3224 39.2557 34.3224C38.9612 34.3224 38.5349 33.9988 38.5349 33.0744V24.4301C38.5349 23.3206 38.193 22.8262 37.2112 22.8262H29.9303C29.1941 22.8262 28.7514 23.3411 28.7514 23.8291C28.7514 24.8808 30.4202 25.1234 30.5922 28.0819V34.5074C30.5922 35.9162 30.3221 36.1716 29.733 36.1716C28.1623 36.1716 24.3416 30.7389 22.0755 24.5225C21.6314 23.3142 21.186 22.8262 20.0019 22.8262H15.3686C14.0448 22.8262 13.78 23.413 13.78 24.0602C13.78 25.2159 15.3508 30.948 21.0939 38.5291C24.9225 43.7063 30.3169 46.5128 35.2255 46.5128C38.1706 46.5128 38.535 45.8895 38.535 44.8158V40.9028C38.535 39.6562 38.814 39.4074 39.7466 39.4074C40.4338 39.4074 41.6119 39.7309 44.3608 42.2272C47.5023 45.1856 48.0202 46.5128 49.7872 46.5128H54.4205C55.7443 46.5128 56.4062 45.8895 56.0244 44.6594C55.6065 43.4334 54.1066 41.6546 52.1164 39.546C51.0365 38.3442 49.4166 37.0499 48.9257 36.4026C48.2386 35.5706 48.4349 35.2007 48.9257 34.4612C48.9257 34.4612 54.5707 26.9725 55.1598 24.4301Z" fill="#2787F5"/>
</svg>
