<svg width="71" height="70" viewBox="0 0 71 70" fill="none" xmlns="http://www.w3.org/2000/svg">
<path d="M18.1655 51.1001L20.6767 41.7713C18.6515 38.1372 18.0081 33.8966 18.8645 29.8275C19.7209 25.7585 22.0197 22.1339 25.3391 19.619C28.6585 17.1041 32.7757 15.8676 36.9354 16.1362C41.095 16.4049 45.018 18.1608 47.9845 21.0817C50.951 24.0026 52.762 27.8925 53.0851 32.0378C53.4083 36.183 52.2219 40.3055 49.7438 43.6487C47.2656 46.9919 43.6619 49.3315 39.5939 50.2383C35.5259 51.1452 31.2665 50.5583 27.5972 48.5855L18.1655 51.1001ZM28.052 45.0945L28.6353 45.4397C31.293 47.011 34.3972 47.6612 37.464 47.289C40.5309 46.9169 43.3882 45.5432 45.5907 43.3822C47.7931 41.2211 49.2171 38.3941 49.6405 35.3415C50.064 32.289 49.4632 29.1825 47.9318 26.5061C46.4005 23.8297 44.0245 21.7337 41.1742 20.5449C38.3239 19.356 35.1594 19.141 32.1738 19.9334C29.1882 20.7257 26.5492 22.481 24.6681 24.9255C22.787 27.3701 21.7695 30.3667 21.7741 33.4483C21.7716 36.0034 22.4801 38.5092 23.8206 40.6865L24.1864 41.2881L22.7825 46.4948L28.052 45.0945Z" fill="#00D95F"/>
<path fill-rule="evenodd" clip-rule="evenodd" d="M42.2092 35.8438C41.8673 35.5687 41.4669 35.3751 41.0386 35.2777C40.6102 35.1803 40.1653 35.1817 39.7376 35.2817C39.095 35.548 38.6797 36.5539 38.2645 37.0568C38.1769 37.1774 38.0483 37.2619 37.9027 37.2946C37.757 37.3273 37.6045 37.3058 37.4736 37.2343C35.1209 36.3152 33.1489 34.6297 31.8778 32.4515C31.7694 32.3156 31.7181 32.143 31.7347 31.9701C31.7513 31.7972 31.8345 31.6375 31.9668 31.5246C32.4299 31.0673 32.77 30.5009 32.9555 29.8777C32.9966 29.1904 32.8388 28.5058 32.5007 27.9055C32.2393 27.0638 31.7419 26.3144 31.0671 25.7458C30.7191 25.5897 30.3333 25.5374 29.9561 25.5951C29.5789 25.6528 29.2266 25.8182 28.9415 26.0712C28.4467 26.4971 28.0539 27.0282 27.7921 27.6256C27.5303 28.2229 27.4062 28.8712 27.4289 29.5227C27.4304 29.8886 27.4769 30.2529 27.5673 30.6075C27.7969 31.4594 28.1499 32.2733 28.6153 33.0235C28.951 33.5981 29.3173 34.1545 29.7127 34.6901C30.9975 36.4493 32.6125 37.943 34.4681 39.0882C35.3992 39.6702 36.3944 40.1434 37.434 40.4984C38.514 40.9867 39.7063 41.1741 40.8844 41.0408C41.5557 40.9394 42.1917 40.6751 42.7364 40.271C43.2812 39.8669 43.7181 39.3354 44.0086 38.7234C44.1792 38.3536 44.231 37.9403 44.1569 37.54C43.9789 36.7215 42.8815 36.2383 42.2092 35.8438Z" fill="#00D95F"/>
</svg>
