<svg width="38" height="38" viewBox="0 0 38 38" fill="none" xmlns="http://www.w3.org/2000/svg">
<path d="M12.563 18.6985C12.563 15.3109 15.3101 12.564 18.6997 12.564C22.0894 12.564 24.8379 15.3109 24.8379 18.6985C24.8379 22.0861 22.0894 24.833 18.6997 24.833C15.3101 24.833 12.563 22.0861 12.563 18.6985ZM9.24483 18.6985C9.24483 23.9173 13.4778 28.1477 18.6997 28.1477C23.9217 28.1477 28.1547 23.9173 28.1547 18.6985C28.1547 13.4796 23.9217 9.24922 18.6997 9.24922C13.4778 9.24922 9.24483 13.4796 9.24483 18.6985ZM26.3194 8.87456C26.3192 9.31131 26.4486 9.7383 26.6913 10.1015C26.9339 10.4648 27.2789 10.748 27.6826 10.9153C28.0863 11.0826 28.5305 11.1265 28.9592 11.0414C29.3878 10.9564 29.7816 10.7462 30.0907 10.4375C30.3999 10.1288 30.6105 9.73544 30.6959 9.30711C30.7813 8.87879 30.7378 8.43477 30.5707 8.03119C30.4036 7.62762 30.1205 7.28263 29.7573 7.03984C29.394 6.79705 28.9669 6.66736 28.5299 6.66719H28.529C27.9432 6.66746 27.3815 6.90008 26.9672 7.31396C26.5529 7.72784 26.3199 8.28913 26.3194 8.87456ZM11.2608 33.6773C9.46564 33.5956 8.48989 33.2968 7.84145 33.0443C6.98178 32.7098 6.3684 32.3115 5.7235 31.6678C5.0786 31.0242 4.6794 30.4118 4.3462 29.5526C4.09342 28.9049 3.79439 27.9294 3.71279 26.1353C3.62352 24.1955 3.6057 23.6129 3.6057 18.6986C3.6057 13.7844 3.62499 13.2033 3.71279 11.262C3.79454 9.46784 4.09578 8.4943 4.3462 7.84463C4.68088 6.98547 5.07948 6.37246 5.7235 5.72795C6.36752 5.08343 6.98031 4.68447 7.84145 4.35147C8.48959 4.09885 9.46564 3.8 11.2608 3.71844C13.2017 3.62923 13.7848 3.61141 18.6997 3.61141C23.6147 3.61141 24.1983 3.6307 26.1409 3.71844C27.9361 3.80014 28.9102 4.1012 29.5602 4.35147C30.4199 4.68447 31.0333 5.08432 31.6782 5.72795C32.3231 6.37158 32.7208 6.98547 33.0555 7.84463C33.3083 8.49238 33.6073 9.46784 33.6889 11.262C33.7782 13.2033 33.796 13.7844 33.796 18.6986C33.796 23.6129 33.7782 24.1939 33.6889 26.1353C33.6072 27.9294 33.3067 28.9046 33.0555 29.5526C32.7208 30.4118 32.3222 31.0248 31.6782 31.6678C31.0342 32.3109 30.4199 32.7098 29.5602 33.0443C28.9121 33.2969 27.9361 33.5958 26.1409 33.6773C24.2 33.7665 23.6169 33.7844 18.6997 33.7844C13.7826 33.7844 13.2011 33.7665 11.2608 33.6773ZM11.1084 0.40783C9.1482 0.497043 7.80875 0.80767 6.639 1.26257C5.42757 1.73234 4.40203 2.36257 3.37723 3.38514C2.35243 4.40771 1.72343 5.43425 1.25338 6.64496C0.798211 7.81474 0.487398 9.15265 0.398131 11.1117C0.307391 13.0738 0.286621 13.7011 0.286621 18.6985C0.286621 23.6959 0.307391 24.3232 0.398131 26.2853C0.487398 28.2444 0.798211 29.5822 1.25338 30.752C1.72343 31.962 2.35257 32.9897 3.37723 34.0118C4.40188 35.0339 5.42757 35.6633 6.639 36.1344C7.81096 36.5893 9.1482 36.8999 11.1084 36.9891C13.0727 37.0783 13.6993 37.1006 18.6997 37.1006C23.7002 37.1006 24.3278 37.0798 26.2911 36.9891C28.2514 36.8999 29.59 36.5893 30.7605 36.1344C31.9712 35.6633 32.9975 35.0344 34.0223 34.0118C35.0471 32.9892 35.6747 31.962 36.1461 30.752C36.6013 29.5822 36.9136 28.2443 37.0014 26.2853C37.0906 24.3217 37.1114 23.6959 37.1114 18.6985C37.1114 13.7011 37.0906 13.0738 37.0014 11.1117C36.9121 9.1525 36.6013 7.81401 36.1461 6.64496C35.6747 5.43499 35.0454 4.40933 34.0223 3.38514C32.9991 2.36095 31.9712 1.73234 30.762 1.26257C29.59 0.80767 28.2513 0.495571 26.2926 0.40783C24.3293 0.318616 23.7016 0.296387 18.7012 0.296387C13.7008 0.296387 13.0727 0.317144 11.1084 0.40783Z" fill="url(#paint0_radial_269_281)"/>
<path d="M12.563 18.6985C12.563 15.3109 15.3101 12.564 18.6997 12.564C22.0894 12.564 24.8379 15.3109 24.8379 18.6985C24.8379 22.0861 22.0894 24.833 18.6997 24.833C15.3101 24.833 12.563 22.0861 12.563 18.6985ZM9.24483 18.6985C9.24483 23.9173 13.4778 28.1477 18.6997 28.1477C23.9217 28.1477 28.1547 23.9173 28.1547 18.6985C28.1547 13.4796 23.9217 9.24922 18.6997 9.24922C13.4778 9.24922 9.24483 13.4796 9.24483 18.6985ZM26.3194 8.87456C26.3192 9.31131 26.4486 9.7383 26.6913 10.1015C26.9339 10.4648 27.2789 10.748 27.6826 10.9153C28.0863 11.0826 28.5305 11.1265 28.9592 11.0414C29.3878 10.9564 29.7816 10.7462 30.0907 10.4375C30.3999 10.1288 30.6105 9.73544 30.6959 9.30711C30.7813 8.87879 30.7378 8.43477 30.5707 8.03119C30.4036 7.62762 30.1205 7.28263 29.7573 7.03984C29.394 6.79705 28.9669 6.66736 28.5299 6.66719H28.529C27.9432 6.66746 27.3815 6.90008 26.9672 7.31396C26.5529 7.72784 26.3199 8.28913 26.3194 8.87456V8.87456ZM11.2608 33.6773C9.46564 33.5956 8.48989 33.2968 7.84145 33.0443C6.98178 32.7098 6.3684 32.3115 5.7235 31.6678C5.0786 31.0242 4.6794 30.4118 4.3462 29.5526C4.09342 28.9049 3.7944 27.9294 3.71279 26.1353C3.62352 24.1955 3.6057 23.6129 3.6057 18.6986C3.6057 13.7844 3.62499 13.2033 3.71279 11.262C3.79454 9.46784 4.09578 8.4943 4.3462 7.84463C4.68088 6.98547 5.07948 6.37246 5.7235 5.72795C6.36752 5.08343 6.98031 4.68447 7.84145 4.35147C8.48959 4.09885 9.46564 3.8 11.2608 3.71844C13.2017 3.62923 13.7848 3.61141 18.6997 3.61141C23.6147 3.61141 24.1983 3.6307 26.1409 3.71844C27.9361 3.80014 28.9102 4.1012 29.5602 4.35147C30.4199 4.68447 31.0333 5.08432 31.6782 5.72795C32.3231 6.37158 32.7208 6.98547 33.0555 7.84463C33.3083 8.49238 33.6073 9.46784 33.6889 11.262C33.7782 13.2033 33.796 13.7844 33.796 18.6986C33.796 23.6129 33.7782 24.1939 33.6889 26.1353C33.6072 27.9294 33.3067 28.9046 33.0555 29.5526C32.7208 30.4118 32.3222 31.0248 31.6782 31.6678C31.0342 32.3109 30.4199 32.7098 29.5602 33.0443C28.9121 33.2969 27.9361 33.5958 26.1409 33.6773C24.2 33.7665 23.6169 33.7844 18.6997 33.7844C13.7826 33.7844 13.2011 33.7665 11.2608 33.6773V33.6773ZM11.1084 0.40783C9.1482 0.497043 7.80875 0.80767 6.639 1.26257C5.42757 1.73234 4.40203 2.36257 3.37723 3.38514C2.35243 4.40771 1.72343 5.43425 1.25338 6.64496C0.798211 7.81474 0.487398 9.15265 0.398131 11.1117C0.307391 13.0738 0.286621 13.7011 0.286621 18.6985C0.286621 23.6959 0.307391 24.3232 0.398131 26.2853C0.487398 28.2444 0.798211 29.5822 1.25338 30.752C1.72343 31.962 2.35257 32.9897 3.37723 34.0118C4.40188 35.0339 5.42757 35.6633 6.639 36.1344C7.81096 36.5893 9.1482 36.8999 11.1084 36.9891C13.0727 37.0783 13.6993 37.1006 18.6997 37.1006C23.7002 37.1006 24.3278 37.0798 26.2911 36.9891C28.2514 36.8999 29.59 36.5893 30.7605 36.1344C31.9712 35.6633 32.9975 35.0344 34.0223 34.0118C35.0471 32.9892 35.6747 31.962 36.1461 30.752C36.6013 29.5822 36.9136 28.2443 37.0014 26.2853C37.0906 24.3217 37.1114 23.6959 37.1114 18.6985C37.1114 13.7011 37.0906 13.0738 37.0014 11.1117C36.9121 9.1525 36.6013 7.81401 36.1461 6.64496C35.6747 5.43499 35.0454 4.40933 34.0223 3.38514C32.9991 2.36095 31.9712 1.73234 30.762 1.26257C29.59 0.80767 28.2513 0.495571 26.2926 0.40783C24.3293 0.318616 23.7016 0.296387 18.7012 0.296387C13.7008 0.296387 13.0727 0.317144 11.1084 0.40783Z" fill="url(#paint1_radial_269_281)"/>
<defs>
<radialGradient id="paint0_radial_269_281" cx="0" cy="0" r="1" gradientUnits="userSpaceOnUse" gradientTransform="translate(5.17921 37.2744) scale(48.0736 48.0448)">
<stop offset="0.09" stop-color="#FA8F21"/>
<stop offset="0.78" stop-color="#D82D7E"/>
</radialGradient>
<radialGradient id="paint1_radial_269_281" cx="0" cy="0" r="1" gradientUnits="userSpaceOnUse" gradientTransform="translate(22.6201 38.9232) scale(37.8886 37.8659)">
<stop offset="0.64" stop-color="#8C3AAA" stop-opacity="0"/>
<stop offset="1" stop-color="#8C3AAA"/>
</radialGradient>
</defs>
</svg>
