<svg width="1468" height="28" viewBox="0 0 1468 28" fill="none" xmlns="http://www.w3.org/2000/svg">
<path d="M0.666667 14C0.666667 21.3638 6.6362 27.3333 14 27.3333C21.3638 27.3333 27.3333 21.3638 27.3333 14C27.3333 6.6362 21.3638 0.666667 14 0.666667C6.6362 0.666667 0.666667 6.6362 0.666667 14ZM1440.67 14C1440.67 21.3638 1446.64 27.3333 1454 27.3333C1461.36 27.3333 1467.33 21.3638 1467.33 14C1467.33 6.6362 1461.36 0.666667 1454 0.666667C1446.64 0.666667 1440.67 6.6362 1440.67 14ZM14 16.5H1454V11.5H14V16.5Z" fill="#6F7F84"/>
</svg>
