<svg width="30" height="30" viewBox="0 0 30 30" fill="none" xmlns="http://www.w3.org/2000/svg">
<path d="M5.9 3.33333C6 4.81667 6.25 6.26667 6.65 7.65L4.65 9.65C3.96667 7.65 3.53333 5.53333 3.38333 3.33333H5.9ZM22.3333 23.3667C23.75 23.7667 25.2 24.0167 26.6667 24.1167V26.6C24.4667 26.45 22.35 26.0167 20.3333 25.35L22.3333 23.3667ZM7.5 0H1.66667C0.75 0 0 0.75 0 1.66667C0 17.3167 12.6833 30 28.3333 30C29.25 30 30 29.25 30 28.3333V22.5167C30 21.6 29.25 20.85 28.3333 20.85C26.2667 20.85 24.25 20.5167 22.3833 19.9C22.2167 19.8333 22.0333 19.8167 21.8667 19.8167C21.4333 19.8167 21.0167 19.9833 20.6833 20.3L17.0167 23.9667C12.3 21.55 8.43333 17.7 6.03333 12.9833L9.7 9.31667C10.1667 8.85 10.3 8.2 10.1167 7.61667C9.5 5.75 9.16667 3.75 9.16667 1.66667C9.16667 0.75 8.41667 0 7.5 0Z" fill="#5C6C72"/>
</svg>
