<svg width="70" height="70" viewBox="0 0 70 70" fill="none" xmlns="http://www.w3.org/2000/svg">
<path d="M25.9 23.3333C26 24.8167 26.25 26.2667 26.65 27.65L24.65 29.65C23.9667 27.65 23.5333 25.5333 23.3833 23.3333H25.9ZM42.3333 43.3667C43.75 43.7667 45.2 44.0167 46.6667 44.1167V46.6C44.4667 46.45 42.35 46.0167 40.3333 45.35L42.3333 43.3667ZM27.5 20H21.6667C20.75 20 20 20.75 20 21.6667C20 37.3167 32.6833 50 48.3333 50C49.25 50 50 49.25 50 48.3333V42.5167C50 41.6 49.25 40.85 48.3333 40.85C46.2667 40.85 44.25 40.5167 42.3833 39.9C42.2167 39.8333 42.0333 39.8167 41.8667 39.8167C41.4333 39.8167 41.0167 39.9833 40.6833 40.3L37.0167 43.9667C32.3 41.55 28.4333 37.7 26.0333 32.9833L29.7 29.3167C30.1667 28.85 30.3 28.2 30.1167 27.6167C29.5 25.75 29.1667 23.75 29.1667 21.6667C29.1667 20.75 28.4167 20 27.5 20Z" fill="#5C6C72"/>
</svg>
