<svg width="38" height="38" viewBox="0 0 38 38" fill="none" xmlns="http://www.w3.org/2000/svg">
<path d="M18.8706 37.4923C29.0399 37.4923 37.2838 29.2484 37.2838 19.0791C37.2838 8.90987 29.0399 0.666016 18.8706 0.666016C8.70137 0.666016 0.45752 8.90987 0.45752 19.0791C0.45752 29.2484 8.70137 37.4923 18.8706 37.4923Z" fill="#34AADF"/>
<path d="M8.35101 18.6757C8.35101 18.6757 17.4719 14.7954 20.6352 13.429C21.8479 12.8825 25.9602 11.1336 25.9602 11.1336C25.9602 11.1336 27.8582 10.3685 27.7 12.2267C27.6473 12.9918 27.2255 15.6698 26.8037 18.5664C26.171 22.6655 25.4857 27.147 25.4857 27.147C25.4857 27.147 25.3802 28.4041 24.484 28.6227C23.5877 28.8413 22.1114 27.8576 21.8479 27.6389C21.6369 27.475 17.8937 25.0155 16.5229 23.8132C16.1539 23.4853 15.7321 22.8294 16.5756 22.0643C18.4736 20.2607 20.7407 18.0199 22.1114 16.599C22.7441 15.9431 23.3768 14.4128 20.7407 16.271C16.9974 18.949 13.3069 21.4631 13.3069 21.4631C13.3069 21.4631 12.4633 22.0096 10.8817 21.5177C9.29995 21.0259 7.45468 20.37 7.45468 20.37C7.45468 20.37 6.18943 19.5502 8.35101 18.6757Z" fill="white"/>
</svg>
