<svg width="44" height="25" viewBox="0 0 44 25" fill="none" xmlns="http://www.w3.org/2000/svg">
<path fill-rule="evenodd" clip-rule="evenodd" d="M42.1598 2.42995C42.4542 1.50541 42.1598 0.82605 40.7586 0.82605H36.1253C34.9473 0.82605 34.4041 1.41292 34.1096 2.06006C34.1096 2.06006 31.7534 7.46858 28.4156 10.9818C27.3357 11.9987 26.8448 12.3223 26.2557 12.3223C25.9612 12.3223 25.5349 11.9987 25.5349 11.0742V2.42996C25.5349 1.3205 25.193 0.82605 24.2112 0.82605H16.9303C16.1941 0.82605 15.7514 1.34097 15.7514 1.82898C15.7514 2.88072 17.4202 3.12326 17.5922 6.0818V12.5073C17.5922 13.916 17.3221 14.1714 16.733 14.1714C15.1623 14.1714 11.3416 8.73877 9.07552 2.52237C8.63143 1.31412 8.18601 0.82605 7.00187 0.82605H2.3686C1.0448 0.82605 0.780029 1.41292 0.780029 2.06006C0.780029 3.21576 2.35081 8.94784 8.09386 16.5289C11.9225 21.7062 17.3169 24.5127 22.2255 24.5127C25.1706 24.5127 25.535 23.8894 25.535 22.8157V18.9027C25.535 17.656 25.814 17.4072 26.7466 17.4072C27.4338 17.4072 28.6119 17.7308 31.3608 20.227C34.5023 23.1855 35.0202 24.5127 36.7872 24.5127H41.4205C42.7443 24.5127 43.4062 23.8894 43.0244 22.6592C42.6065 21.4332 41.1066 19.6545 39.1164 17.5459C38.0365 16.344 36.4166 15.0497 35.9257 14.4025C35.2386 13.5705 35.4349 13.2006 35.9257 12.461C35.9257 12.461 41.5707 4.97235 42.1598 2.42995Z" fill="#2787F5"/>
</svg>
