<svg width="26" height="14" viewBox="0 0 26 14" fill="none" xmlns="http://www.w3.org/2000/svg">
<path fill-rule="evenodd" clip-rule="evenodd" d="M24.6713 0.959973C24.8403 0.431663 24.6713 0.043457 23.8668 0.043457H21.2065C20.5301 0.043457 20.2182 0.378809 20.0491 0.748606C20.0491 0.748606 18.6962 3.83919 16.7797 5.84672C16.1597 6.42784 15.8778 6.61274 15.5396 6.61274C15.3705 6.61274 15.1257 6.42784 15.1257 5.89957V0.959976C15.1257 0.326002 14.9294 0.043457 14.3657 0.043457H10.1852C9.76249 0.043457 9.50827 0.337699 9.50827 0.616562C9.50827 1.21755 10.4665 1.35615 10.5652 3.04674V6.71844C10.5652 7.52345 10.4101 7.6694 10.0719 7.6694C9.17006 7.6694 6.97628 4.56501 5.67517 1.01278C5.42019 0.322354 5.16444 0.043457 4.48454 0.043457H1.82422C1.06414 0.043457 0.912109 0.378809 0.912109 0.748606C0.912109 1.409 1.81401 4.68448 5.11153 9.01654C7.30985 11.975 10.4071 13.5787 13.2256 13.5787C14.9166 13.5787 15.1258 13.2225 15.1258 12.609V10.373C15.1258 9.66059 15.286 9.51842 15.8215 9.51842C16.216 9.51842 16.8925 9.70332 18.4708 11.1297C20.2746 12.8203 20.5719 13.5787 21.5865 13.5787H24.2468C25.0069 13.5787 25.387 13.2225 25.1677 12.5196C24.9278 11.819 24.0666 10.8026 22.9239 9.59765C22.3038 8.91087 21.3738 8.17128 21.0919 7.8014C20.6973 7.32599 20.8101 7.11462 21.0919 6.69202C21.0919 6.69202 24.3331 2.41277 24.6713 0.959973Z" fill="#2787F5"/>
</svg>
