<svg width="44" height="25" viewBox="0 0 44 25" fill="none" xmlns="http://www.w3.org/2000/svg">
<path fill-rule="evenodd" clip-rule="evenodd" d="M42.3847 2.52964C42.6803 1.60132 42.3847 0.919189 40.9779 0.919189H36.3257C35.1428 0.919189 34.5975 1.50845 34.3017 2.15823C34.3017 2.15823 31.9359 7.58881 28.5844 11.1163C27.5002 12.1374 27.0073 12.4623 26.4158 12.4623C26.1201 12.4623 25.6921 12.1374 25.6921 11.2092V2.52964C25.6921 1.41566 25.3488 0.919189 24.3629 0.919189H17.0524C16.3132 0.919189 15.8686 1.43621 15.8686 1.92621C15.8686 2.98224 17.5442 3.22578 17.717 6.19638V12.6481C17.717 14.0626 17.4457 14.319 16.8543 14.319C15.2771 14.319 11.4408 8.86419 9.16552 2.62243C8.71962 1.40925 8.27238 0.919189 7.08341 0.919189H2.43123C1.10203 0.919189 0.836182 1.50845 0.836182 2.15823C0.836182 3.31865 2.41337 9.07412 8.17985 16.6861C12.0241 21.8845 17.4405 24.7025 22.3691 24.7025C25.3263 24.7025 25.6921 24.0766 25.6921 22.9985V19.0696C25.6921 17.8178 25.9723 17.568 26.9087 17.568C27.5987 17.568 28.7816 17.8929 31.5417 20.3993C34.696 23.3698 35.216 24.7025 36.9903 24.7025H41.6425C42.9717 24.7025 43.6363 24.0766 43.2529 22.8415C42.8333 21.6105 41.3273 19.8244 39.329 17.7072C38.2446 16.5005 36.6182 15.2009 36.1253 14.551C35.4353 13.7156 35.6324 13.3442 36.1253 12.6016C36.1253 12.6016 41.7933 5.0824 42.3847 2.52964Z" fill="#2787F5"/>
</svg>
