<svg width="71" height="70" viewBox="0 0 71 70" fill="none" xmlns="http://www.w3.org/2000/svg">
<path d="M18.2947 51.1003L20.8058 41.7715C18.7807 38.1375 18.1372 33.8968 18.9936 29.8278C19.8501 25.7587 22.1489 22.1342 25.4682 19.6193C28.7876 17.1044 32.9049 15.8678 37.0645 16.1365C41.2242 16.4051 45.1472 18.161 48.1137 21.0819C51.0802 24.0028 52.8911 27.8928 53.2143 32.038C53.5374 36.1833 52.3511 40.3057 49.8729 43.6489C47.3948 46.9921 43.7911 49.3318 39.7231 50.2386C35.655 51.1454 31.3956 50.5585 27.7264 48.5857L18.2947 51.1003ZM28.1812 45.0948L28.7645 45.4399C31.4222 47.0112 34.5263 47.6614 37.5932 47.2893C40.6601 46.9171 43.5174 45.5435 45.7198 43.3824C47.9223 41.2214 49.3462 38.3943 49.7697 35.3418C50.1931 32.2892 49.5924 29.1827 48.061 26.5063C46.5296 23.8299 44.1536 21.734 41.3033 20.5451C38.453 19.3562 35.2885 19.1413 32.3029 19.9336C29.3173 20.726 26.6783 22.4812 24.7973 24.9258C22.9162 27.3703 21.8987 30.3669 21.9033 33.4485C21.9008 36.0037 22.6092 38.5094 23.9498 40.6868L24.3156 41.2883L22.9117 46.4951L28.1812 45.0948Z" fill="#00D95F"/>
<path fill-rule="evenodd" clip-rule="evenodd" d="M42.3384 35.8438C41.9964 35.5687 41.596 35.3751 41.1677 35.2777C40.7394 35.1803 40.2944 35.1817 39.8667 35.2817C39.2241 35.548 38.8089 36.5539 38.3937 37.0568C38.3061 37.1774 38.1774 37.2619 38.0318 37.2946C37.8862 37.3273 37.7336 37.3058 37.6027 37.2343C35.2501 36.3152 33.278 34.6297 32.007 32.4515C31.8986 32.3156 31.8473 32.143 31.8638 31.9701C31.8804 31.7972 31.9637 31.6375 32.096 31.5246C32.5591 31.0673 32.8991 30.5009 33.0846 29.8777C33.1258 29.1904 32.9679 28.5058 32.6298 27.9055C32.3684 27.0638 31.871 26.3144 31.1963 25.7458C30.8483 25.5897 30.4624 25.5374 30.0853 25.5951C29.7081 25.6528 29.3557 25.8182 29.0707 26.0712C28.5758 26.4971 28.1831 27.0282 27.9213 27.6256C27.6595 28.2229 27.5354 28.8712 27.5581 29.5227C27.5596 29.8886 27.6061 30.2529 27.6965 30.6075C27.926 31.4594 28.2791 32.2733 28.7444 33.0235C29.0802 33.5981 29.4465 34.1545 29.8418 34.6901C31.1266 36.4493 32.7416 37.943 34.5972 39.0882C35.5284 39.6702 36.5236 40.1434 37.5632 40.4984C38.6431 40.9867 39.8354 41.1741 41.0136 41.0408C41.6848 40.9394 42.3208 40.6751 42.8656 40.271C43.4104 39.8669 43.8472 39.3354 44.1377 38.7234C44.3084 38.3536 44.3602 37.9403 44.286 37.54C44.108 36.7215 43.0106 36.2383 42.3384 35.8438Z" fill="#00D95F"/>
</svg>
