<svg width="36" height="36" viewBox="0 0 36 36" fill="none" xmlns="http://www.w3.org/2000/svg">
<path d="M0.294678 35.1003L2.80585 25.7715C0.780652 22.1375 0.137227 17.8968 0.993643 13.8278C1.85006 9.7587 4.14887 6.13417 7.46824 3.61927C10.7876 1.10438 14.9049 -0.132197 19.0645 0.13647C23.2242 0.405137 27.1472 2.16102 30.1137 5.08191C33.0802 8.00281 34.8911 11.8928 35.2143 16.038C35.5374 20.1833 34.3511 24.3057 31.8729 27.6489C29.3948 30.9921 25.7911 33.3318 21.7231 34.2386C17.655 35.1454 13.3956 34.5585 9.7264 32.5857L0.294678 35.1003ZM10.1812 29.0948L10.7645 29.4399C13.4222 31.0112 16.5263 31.6614 19.5932 31.2893C22.6601 30.9171 25.5174 29.5435 27.7198 27.3824C29.9223 25.2214 31.3462 22.3943 31.7697 19.3418C32.1931 16.2892 31.5924 13.1827 30.061 10.5063C28.5296 7.82992 26.1536 5.73397 23.3033 4.54511C20.453 3.35625 17.2885 3.14125 14.3029 3.93362C11.3173 4.72599 8.67835 6.48122 6.79727 8.92578C4.91619 11.3703 3.89866 14.3669 3.90325 17.4485C3.90075 20.0037 4.60921 22.5094 5.94976 24.6868L6.31556 25.2883L4.91167 30.4951L10.1812 29.0948Z" fill="#00D95F"/>
</svg>
